<svg width="512" height="512" xmlns="http://www.w3.org/2000/svg"><rect id="backgroundrect" width="100%" height="100%" x="0" y="0" fill="none" stroke="none"/><title>ionicons-v5-c</title><g class="currentLayer" style=""><title>Layer 1</title><path d="M30.71,229.47l188.87-113a30.54,30.54,0,0,1,31.09-.39,33.74,33.74,0,0,1,16.76,29.47V224.6L448.15,116.44a30.54,30.54,0,0,1,31.09-.39A33.74,33.74,0,0,1,496,145.52v221A33.73,33.73,0,0,1,479.24,396a30.54,30.54,0,0,1-31.09-.39L267.43,287.4v79.08A33.73,33.73,0,0,1,250.67,396a30.54,30.54,0,0,1-31.09-.39l-188.87-113a31.27,31.27,0,0,1,0-53Z" id="svg_1" class="selected" fill="#ffffff" fill-opacity="1"/></g></svg>