<svg version="1.1" xmlns="http://www.w3.org/2000/svg" xmlns:xlink="http://www.w3.org/1999/xlink" style="enable-background:new 0 0 512.002 512.002;" xml:space="preserve" width="512.002" height="512.002"><rect id="backgroundrect" width="100%" height="100%" x="0" y="0" fill="none" stroke="none"/>


















<g class="currentLayer" style=""><title>Layer 1</title><g id="svg_1" class="" fill="#ffffff" fill-opacity="1">
	<g id="svg_2" fill="#ffffff" fill-opacity="1">
		<path d="M221.119,9.05L109.593,120.576H0v270.849h109.593l111.526,111.526h49.729V9.05H221.119z M223.052,437.29l-93.661-93.661    H47.797V168.373h81.594l93.661-93.66V437.29z" id="svg_3" fill="#ffffff" fill-opacity="1"/>
	</g>
</g><g id="svg_4" class="" fill="#ffffff" fill-opacity="1">
	<g id="svg_5" fill="#ffffff" fill-opacity="1">
		<path d="M343.511,137.71l-33.797,33.797c46.589,46.591,46.589,122.398,0,168.987l33.797,33.797    C408.736,309.067,408.736,202.935,343.511,137.71z" id="svg_6" fill="#ffffff" fill-opacity="1"/>
	</g>
</g><g id="svg_7" class="selected" fill="#ffffff" fill-opacity="1">
	<g id="svg_8" fill="#ffffff" fill-opacity="1">
		<path d="M428.005,53.216l-33.797,33.797c45.138,45.138,69.997,105.152,69.997,168.987s-24.859,123.85-69.997,168.987    l33.797,33.797c54.167-54.165,83.997-126.182,83.997-202.785S482.172,107.381,428.005,53.216z" id="svg_9" fill="#ffffff" fill-opacity="1"/>
	</g>
</g><g id="svg_10">
</g><g id="svg_11">
</g><g id="svg_12">
</g><g id="svg_13">
</g><g id="svg_14">
</g><g id="svg_15">
</g><g id="svg_16">
</g><g id="svg_17">
</g><g id="svg_18">
</g><g id="svg_19">
</g><g id="svg_20">
</g><g id="svg_21">
</g><g id="svg_22">
</g><g id="svg_23">
</g><g id="svg_24">
</g></g></svg>