<svg width="512" height="512" xmlns="http://www.w3.org/2000/svg" style=""><rect id="backgroundrect" width="100%" height="100%" x="0" y="0" fill="none" stroke="none"/><title>ionicons-v5-c</title><g class="currentLayer" style=""><title>Layer 1</title><path d="M400,64a16,16,0,0,0-16,16V216.43L151.23,77.11a35.13,35.13,0,0,0-35.77-.44C103.46,83.47,96,96.63,96,111V401c0,14.37,7.46,27.53,19.46,34.33a35.14,35.14,0,0,0,35.77-.45L384,295.57V432a16,16,0,0,0,32,0V80A16,16,0,0,0,400,64Z" id="svg_1" class="selected" fill="#ffffff" fill-opacity="1"/></g></svg>