<svg version="1.1" xmlns="http://www.w3.org/2000/svg" xmlns:xlink="http://www.w3.org/1999/xlink" style="" xml:space="preserve" width="47.971" height="47.971"><rect id="backgroundrect" width="100%" height="100%" x="0" y="0" fill="none" stroke="none"/>
















<g class="currentLayer" style=""><title>Layer 1</title><g id="svg_1" class="selected" fill="#ffffff" fill-opacity="1">
	<path d="M28.228,23.986L47.092,5.122c1.172-1.171,1.172-3.071,0-4.242c-1.172-1.172-3.07-1.172-4.242,0L23.986,19.744L5.121,0.88   c-1.172-1.172-3.07-1.172-4.242,0c-1.172,1.171-1.172,3.071,0,4.242l18.865,18.864L0.879,42.85c-1.172,1.171-1.172,3.071,0,4.242   C1.465,47.677,2.233,47.97,3,47.97s1.535-0.293,2.121-0.879l18.865-18.864L42.85,47.091c0.586,0.586,1.354,0.879,2.121,0.879   s1.535-0.293,2.121-0.879c1.172-1.171,1.172-3.071,0-4.242L28.228,23.986z" id="svg_2" fill="#ffffff" fill-opacity="1"/>
</g><g id="svg_3">
</g><g id="svg_4">
</g><g id="svg_5">
</g><g id="svg_6">
</g><g id="svg_7">
</g><g id="svg_8">
</g><g id="svg_9">
</g><g id="svg_10">
</g><g id="svg_11">
</g><g id="svg_12">
</g><g id="svg_13">
</g><g id="svg_14">
</g><g id="svg_15">
</g><g id="svg_16">
</g><g id="svg_17">
</g></g></svg>