<svg width="512" height="512" xmlns="http://www.w3.org/2000/svg"><rect id="backgroundrect" width="100%" height="100%" x="0" y="0" fill="none" stroke="none"/><title>ionicons-v5-c</title><g class="currentLayer" style=""><title>Layer 1</title><path d="M112,64a16,16,0,0,1,16,16V216.43L360.77,77.11a35.13,35.13,0,0,1,35.77-.44c12,6.8,19.46,20,19.46,34.33V401c0,14.37-7.46,27.53-19.46,34.33a35.14,35.14,0,0,1-35.77-.45L128,295.57V432a16,16,0,0,1-32,0V80A16,16,0,0,1,112,64Z" id="svg_1" class="selected" fill="#ffffff" fill-opacity="1"/></g></svg>