<svg width="512" height="512" xmlns="http://www.w3.org/2000/svg"><rect id="backgroundrect" width="100%" height="100%" x="0" y="0" fill="none" stroke="none"/><title>ionicons-v5-c</title><g class="currentLayer" style=""><title>Layer 1</title><path d="M208,432H160a16,16,0,0,1-16-16V96a16,16,0,0,1,16-16h48a16,16,0,0,1,16,16V416A16,16,0,0,1,208,432Z" id="svg_1" class="" fill="#ffffff" fill-opacity="1"/><path d="M352,432H304a16,16,0,0,1-16-16V96a16,16,0,0,1,16-16h48a16,16,0,0,1,16,16V416A16,16,0,0,1,352,432Z" id="svg_2" class="selected" fill="#ffffff" fill-opacity="1"/></g></svg>