<svg width="512" height="512" xmlns="http://www.w3.org/2000/svg"><rect id="backgroundrect" width="100%" height="100%" x="0" y="0" fill="none" stroke="none"/><title>ionicons-v5-c</title><g class="currentLayer" style=""><title>Layer 1</title><path d="M481.29,229.47l-188.87-113a30.54,30.54,0,0,0-31.09-.39,33.74,33.74,0,0,0-16.76,29.47V224.6L63.85,116.44a30.54,30.54,0,0,0-31.09-.39A33.74,33.74,0,0,0,16,145.52v221A33.74,33.74,0,0,0,32.76,396a30.54,30.54,0,0,0,31.09-.39L244.57,287.4v79.08A33.74,33.74,0,0,0,261.33,396a30.54,30.54,0,0,0,31.09-.39l188.87-113a31.27,31.27,0,0,0,0-53Z" id="svg_1" class="" fill="#ffffff" fill-opacity="1"/></g></svg>